<svg width="48" height="12" viewBox="0 0 48 12" fill="none" xmlns="http://www.w3.org/2000/svg">
<rect width="48" height="12" fill="#C4C4C4"/>
<path d="M4 11C4 11.5523 3.55228 12 3 12C2.44772 12 2 11.5523 2 11C2 10.4477 2.44772 10 3 10C3.55228 10 4 10.4477 4 11Z" fill="black"/>
<path d="M8 11C8 11.5523 7.55228 12 7 12C6.44772 12 6 11.5523 6 11C6 10.4477 6.44772 10 7 10C7.55228 10 8 10.4477 8 11Z" fill="black"/>
<path d="M6 11C6 11.5523 5.55228 12 5 12C4.44772 12 4 11.5523 4 11C4 10.4477 4.44772 10 5 10C5.55228 10 6 10.4477 6 11Z" fill="black"/>
<path d="M2 11C2 11.5523 1.55228 12 1 12C0.447715 12 0 11.5523 0 11C0 10.4477 0.447715 10 1 10C1.55228 10 2 10.4477 2 11Z" fill="black"/>
<path d="M12 11C12 11.5523 11.5523 12 11 12C10.4477 12 10 11.5523 10 11C10 10.4477 10.4477 10 11 10C11.5523 10 12 10.4477 12 11Z" fill="black"/>
<path d="M16 11C16 11.5523 15.5523 12 15 12C14.4477 12 14 11.5523 14 11C14 10.4477 14.4477 10 15 10C15.5523 10 16 10.4477 16 11Z" fill="black"/>
<path d="M14 11C14 11.5523 13.5523 12 13 12C12.4477 12 12 11.5523 12 11C12 10.4477 12.4477 10 13 10C13.5523 10 14 10.4477 14 11Z" fill="black"/>
<path d="M10 11C10 11.5523 9.55228 12 9 12C8.44772 12 8 11.5523 8 11C8 10.4477 8.44772 10 9 10C9.55228 10 10 10.4477 10 11Z" fill="black"/>
<path d="M20 11C20 11.5523 19.5523 12 19 12C18.4477 12 18 11.5523 18 11C18 10.4477 18.4477 10 19 10C19.5523 10 20 10.4477 20 11Z" fill="black"/>
<path d="M24 11C24 11.5523 23.5523 12 23 12C22.4477 12 22 11.5523 22 11C22 10.4477 22.4477 10 23 10C23.5523 10 24 10.4477 24 11Z" fill="black"/>
<path d="M22 11C22 11.5523 21.5523 12 21 12C20.4477 12 20 11.5523 20 11C20 10.4477 20.4477 10 21 10C21.5523 10 22 10.4477 22 11Z" fill="black"/>
<path d="M18 11C18 11.5523 17.5523 12 17 12C16.4477 12 16 11.5523 16 11C16 10.4477 16.4477 10 17 10C17.5523 10 18 10.4477 18 11Z" fill="black"/>
<path d="M28 11C28 11.5523 27.5523 12 27 12C26.4477 12 26 11.5523 26 11C26 10.4477 26.4477 10 27 10C27.5523 10 28 10.4477 28 11Z" fill="black"/>
<path d="M32 11C32 11.5523 31.5523 12 31 12C30.4477 12 30 11.5523 30 11C30 10.4477 30.4477 10 31 10C31.5523 10 32 10.4477 32 11Z" fill="black"/>
<path d="M30 11C30 11.5523 29.5523 12 29 12C28.4477 12 28 11.5523 28 11C28 10.4477 28.4477 10 29 10C29.5523 10 30 10.4477 30 11Z" fill="black"/>
<path d="M26 11C26 11.5523 25.5523 12 25 12C24.4477 12 24 11.5523 24 11C24 10.4477 24.4477 10 25 10C25.5523 10 26 10.4477 26 11Z" fill="black"/>
<path d="M36 11C36 11.5523 35.5523 12 35 12C34.4477 12 34 11.5523 34 11C34 10.4477 34.4477 10 35 10C35.5523 10 36 10.4477 36 11Z" fill="black"/>
<path d="M40 11C40 11.5523 39.5523 12 39 12C38.4477 12 38 11.5523 38 11C38 10.4477 38.4477 10 39 10C39.5523 10 40 10.4477 40 11Z" fill="black"/>
<path d="M38 11C38 11.5523 37.5523 12 37 12C36.4477 12 36 11.5523 36 11C36 10.4477 36.4477 10 37 10C37.5523 10 38 10.4477 38 11Z" fill="black"/>
<path d="M34 11C34 11.5523 33.5523 12 33 12C32.4477 12 32 11.5523 32 11C32 10.4477 32.4477 10 33 10C33.5523 10 34 10.4477 34 11Z" fill="black"/>
<path d="M44 11C44 11.5523 43.5523 12 43 12C42.4477 12 42 11.5523 42 11C42 10.4477 42.4477 10 43 10C43.5523 10 44 10.4477 44 11Z" fill="black"/>
<path d="M48 11C48 11.5523 47.5523 12 47 12C46.4477 12 46 11.5523 46 11C46 10.4477 46.4477 10 47 10C47.5523 10 48 10.4477 48 11Z" fill="black"/>
<path d="M46 11C46 11.5523 45.5523 12 45 12C44.4477 12 44 11.5523 44 11C44 10.4477 44.4477 10 45 10C45.5523 10 46 10.4477 46 11Z" fill="black"/>
<path d="M42 11C42 11.5523 41.5523 12 41 12C40.4477 12 40 11.5523 40 11C40 10.4477 40.4477 10 41 10C41.5523 10 42 10.4477 42 11Z" fill="black"/>
<path d="M4 1C4 1.55228 3.55228 2 3 2C2.44772 2 2 1.55228 2 1C2 0.447715 2.44772 0 3 0C3.55228 0 4 0.447715 4 1Z" fill="black"/>
<path d="M8 1C8 1.55228 7.55228 2 7 2C6.44772 2 6 1.55228 6 1C6 0.447715 6.44772 0 7 0C7.55228 0 8 0.447715 8 1Z" fill="black"/>
<path d="M6 1C6 1.55228 5.55228 2 5 2C4.44772 2 4 1.55228 4 1C4 0.447715 4.44772 0 5 0C5.55228 0 6 0.447715 6 1Z" fill="black"/>
<path d="M2 1C2 1.55228 1.55228 2 1 2C0.447715 2 0 1.55228 0 1C0 0.447715 0.447715 0 1 0C1.55228 0 2 0.447715 2 1Z" fill="black"/>
<path d="M12 1C12 1.55228 11.5523 2 11 2C10.4477 2 10 1.55228 10 1C10 0.447715 10.4477 0 11 0C11.5523 0 12 0.447715 12 1Z" fill="black"/>
<path d="M16 1C16 1.55228 15.5523 2 15 2C14.4477 2 14 1.55228 14 1C14 0.447715 14.4477 0 15 0C15.5523 0 16 0.447715 16 1Z" fill="black"/>
<path d="M14 1C14 1.55228 13.5523 2 13 2C12.4477 2 12 1.55228 12 1C12 0.447715 12.4477 0 13 0C13.5523 0 14 0.447715 14 1Z" fill="black"/>
<path d="M10 1C10 1.55228 9.55228 2 9 2C8.44772 2 8 1.55228 8 1C8 0.447715 8.44772 0 9 0C9.55228 0 10 0.447715 10 1Z" fill="black"/>
<path d="M20 1C20 1.55228 19.5523 2 19 2C18.4477 2 18 1.55228 18 1C18 0.447715 18.4477 0 19 0C19.5523 0 20 0.447715 20 1Z" fill="black"/>
<path d="M24 1C24 1.55228 23.5523 2 23 2C22.4477 2 22 1.55228 22 1C22 0.447715 22.4477 0 23 0C23.5523 0 24 0.447715 24 1Z" fill="black"/>
<path d="M22 1C22 1.55228 21.5523 2 21 2C20.4477 2 20 1.55228 20 1C20 0.447715 20.4477 0 21 0C21.5523 0 22 0.447715 22 1Z" fill="black"/>
<path d="M18 1C18 1.55228 17.5523 2 17 2C16.4477 2 16 1.55228 16 1C16 0.447715 16.4477 0 17 0C17.5523 0 18 0.447715 18 1Z" fill="black"/>
<path d="M28 1C28 1.55228 27.5523 2 27 2C26.4477 2 26 1.55228 26 1C26 0.447715 26.4477 0 27 0C27.5523 0 28 0.447715 28 1Z" fill="black"/>
<path d="M32 1C32 1.55228 31.5523 2 31 2C30.4477 2 30 1.55228 30 1C30 0.447715 30.4477 0 31 0C31.5523 0 32 0.447715 32 1Z" fill="black"/>
<path d="M30 1C30 1.55228 29.5523 2 29 2C28.4477 2 28 1.55228 28 1C28 0.447715 28.4477 0 29 0C29.5523 0 30 0.447715 30 1Z" fill="black"/>
<path d="M26 1C26 1.55228 25.5523 2 25 2C24.4477 2 24 1.55228 24 1C24 0.447715 24.4477 0 25 0C25.5523 0 26 0.447715 26 1Z" fill="black"/>
<path d="M36 1C36 1.55228 35.5523 2 35 2C34.4477 2 34 1.55228 34 1C34 0.447715 34.4477 0 35 0C35.5523 0 36 0.447715 36 1Z" fill="black"/>
<path d="M40 1C40 1.55228 39.5523 2 39 2C38.4477 2 38 1.55228 38 1C38 0.447715 38.4477 0 39 0C39.5523 0 40 0.447715 40 1Z" fill="black"/>
<path d="M38 1C38 1.55228 37.5523 2 37 2C36.4477 2 36 1.55228 36 1C36 0.447715 36.4477 0 37 0C37.5523 0 38 0.447715 38 1Z" fill="black"/>
<path d="M34 1C34 1.55228 33.5523 2 33 2C32.4477 2 32 1.55228 32 1C32 0.447715 32.4477 0 33 0C33.5523 0 34 0.447715 34 1Z" fill="black"/>
<path d="M44 1C44 1.55228 43.5523 2 43 2C42.4477 2 42 1.55228 42 1C42 0.447715 42.4477 0 43 0C43.5523 0 44 0.447715 44 1Z" fill="black"/>
<path d="M48 1C48 1.55228 47.5523 2 47 2C46.4477 2 46 1.55228 46 1C46 0.447715 46.4477 0 47 0C47.5523 0 48 0.447715 48 1Z" fill="black"/>
<path d="M46 1C46 1.55228 45.5523 2 45 2C44.4477 2 44 1.55228 44 1C44 0.447715 44.4477 0 45 0C45.5523 0 46 0.447715 46 1Z" fill="black"/>
<path d="M42 1C42 1.55228 41.5523 2 41 2C40.4477 2 40 1.55228 40 1C40 0.447715 40.4477 0 41 0C41.5523 0 42 0.447715 42 1Z" fill="black"/>
</svg>
